<?xml version="1.0" encoding="utf-8"?>
<!-- Generator: Adobe Illustrator 17.0.1, SVG Export Plug-In . SVG Version: 6.00 Build 0)  -->
<!DOCTYPE svg PUBLIC "-//W3C//DTD SVG 1.1//EN" "http://www.w3.org/Graphics/SVG/1.1/DTD/svg11.dtd">
<svg version="1.1" id="Layer_1" xmlns="http://www.w3.org/2000/svg" xmlns:xlink="http://www.w3.org/1999/xlink" x="0px" y="0px"
	 width="467.4px" height="88.1px" viewBox="-7.6 127.5 467.4 88.1" enable-background="new -7.6 127.5 467.4 88.1"
	 xml:space="preserve">
<g>
	<path fill="#FFFFFF" d="M44.5,157.6c-3.6-3-8.1-5-12.9-5c-3.6,0-8.3,2.1-8.3,6.3c0,4.4,5.3,6.1,8.6,7.1l5,1.5
		c10.4,3.1,18.5,8.3,18.5,20.4c0,7.4-1.8,15.1-7.7,20.1c-5.9,5-13.7,7-21.2,7c-9.4,0-18.7-3.2-26.3-8.5L8.3,191
		c4.9,4.3,10.6,7.7,17.3,7.7c4.6,0,9.4-2.3,9.4-7.5c0-5.5-7.6-7.3-11.8-8.5C11,179.1,3,176,3,161.5c0-15.2,10.8-25.1,25.8-25.1
		c7.5,0,16.8,2.4,23.4,6.2L44.5,157.6z"/>
	<path fill="#FFFFFF" d="M91.8,154.8v12.5h21.9v16.5H91.8v12.9H115v16.5H72.4v-74.8H115v16.5L91.8,154.8L91.8,154.8z"/>
	<path fill="#FFFFFF" d="M129.4,138.4H157c20.8,0,38,16.4,38,37.4c0,21-17.3,37.4-38,37.4h-27.6V138.4z M148.9,196.7h4.4
		c11.6,0,21.5-6.4,21.5-20.9c0-13.4-8.8-20.9-21.3-20.9h-4.6V196.7z"/>
	<path fill="#FFFFFF" d="M286.9,174.4c0,24.2-17.4,41.3-41.4,41.3c-24,0-41.4-17.1-41.4-41.3c0-22.6,19.9-38.5,41.4-38.5
		C267,135.9,286.9,151.8,286.9,174.4z M224.3,174.5c0,12.9,9.5,22.3,21.1,22.3c11.6,0,21.1-9.4,21.1-22.3c0-10.3-9.5-19.8-21.1-19.8
		C233.9,154.7,224.3,164.2,224.3,174.5z"/>
	<path fill="#FFFFFF" d="M297.2,138.4h19.5l35.6,45.8h0.2v-45.8H372v74.8h-19.5l-35.6-45.9h-0.2v45.9h-19.5V138.4z"/>
	<path fill="#FFFFFF" d="M407.3,200.2l-5.2,13h-20.6l28.8-74.8h21.2l28.2,74.8H439l-4.9-13H407.3z M420.9,161.5h-0.2l-8,23.8h16.2
		L420.9,161.5z"/>
</g>
</svg>
