<?xml version="1.0" encoding="utf-8"?>
<!-- Generator: Adobe Illustrator 17.0.1, SVG Export Plug-In . SVG Version: 6.00 Build 0)  -->
<!DOCTYPE svg PUBLIC "-//W3C//DTD SVG 1.1//EN" "http://www.w3.org/Graphics/SVG/1.1/DTD/svg11.dtd">
<svg version="1.1" id="Layer_1" xmlns="http://www.w3.org/2000/svg" xmlns:xlink="http://www.w3.org/1999/xlink" x="0px" y="0px"
	 width="14.807px" height="20.556px" viewBox="0 0 14.807 20.556" enable-background="new 0 0 14.807 20.556" xml:space="preserve">
<g>
	<path fill="#FFFFFF" stroke="#FFFFFF" stroke-miterlimit="10" d="M5.028,15.819c0,1.559-0.731,2.835-1.625,2.835
		s-1.625-1.276-1.625-2.835V4.738c0-1.559,0.731-2.835,1.625-2.835s1.625,1.276,1.625,2.835V15.819z"/>
	<path fill="none" stroke="#FFFFFF" stroke-miterlimit="10" d="M5.028,15.819c0,1.559-0.731,2.835-1.625,2.835
		s-1.625-1.276-1.625-2.835V4.738c0-1.559,0.731-2.835,1.625-2.835s1.625,1.276,1.625,2.835V15.819z"/>
	<g>
		<path fill="#FFFFFF" stroke="#FFFFFF" stroke-miterlimit="10" d="M13.028,15.819c0,1.559-0.731,2.835-1.625,2.835
			s-1.625-1.276-1.625-2.835V4.738c0-1.559,0.731-2.835,1.625-2.835s1.625,1.276,1.625,2.835V15.819z"/>
		<path fill="none" stroke="#FFFFFF" stroke-miterlimit="10" d="M13.028,15.819c0,1.559-0.731,2.835-1.625,2.835
			s-1.625-1.276-1.625-2.835V4.738c0-1.559,0.731-2.835,1.625-2.835s1.625,1.276,1.625,2.835V15.819z"/>
	</g>
</g>
</svg>
